<?xml version="1.0" encoding="UTF-8" standalone="no"?>
<!DOCTYPE svg PUBLIC "-//W3C//DTD SVG 1.1//EN"
 "http://www.w3.org/Graphics/SVG/1.1/DTD/svg11.dtd">
<!-- Generated by graphviz version 5.0.0 (20220707.1540)
 -->
<!-- Title: dependencies Pages: 1 -->
<svg width="1062pt" height="247pt"
 viewBox="0.00 0.00 1062.00 246.80" xmlns="http://www.w3.org/2000/svg" xmlns:xlink="http://www.w3.org/1999/xlink">
<g id="graph0" class="graph" transform="scale(1 1) rotate(0) translate(4 242.8)">
<title>dependencies</title>
<polygon fill="white" stroke="transparent" points="-4,4 -4,-242.8 1058,-242.8 1058,4 -4,4"/>
<text text-anchor="middle" x="527" y="-8.2" font-family="sans-serif" font-size="14.00">dependencies</text>
<g id="clust1" class="cluster">
<title>cluster_AppModule</title>
<polygon fill="none" stroke="black" stroke-dasharray="1,5" points="8,-32.8 8,-230.8 1046,-230.8 1046,-32.8 8,-32.8"/>
</g>
<g id="clust11" class="cluster">
<title>cluster_AppModule_bootstrap</title>
<polygon fill="none" stroke="black" points="494,-170.8 494,-222.8 618,-222.8 618,-170.8 494,-170.8"/>
</g>
<g id="clust9" class="cluster">
<title>cluster_AppModule_imports</title>
<polygon fill="none" stroke="black" points="894,-40.8 894,-92.8 1038,-92.8 1038,-40.8 894,-40.8"/>
</g>
<g id="clust2" class="cluster">
<title>cluster_AppModule_declarations</title>
<polygon fill="none" stroke="black" points="16,-40.8 16,-92.8 886,-92.8 886,-40.8 16,-40.8"/>
</g>
<!-- AppComponent -->
<g id="node1" class="node">
<title>AppComponent</title>
<polygon fill="#ffffb3" stroke="black" points="877.94,-84.8 772.06,-84.8 772.06,-48.8 877.94,-48.8 877.94,-84.8"/>
<text text-anchor="middle" x="825" y="-62.6" font-family="Times,serif" font-size="14.00">AppComponent</text>
</g>
<!-- AppModule -->
<g id="node7" class="node">
<title>AppModule</title>
<polygon fill="#8dd3c7" stroke="black" points="597.66,-149.8 594.66,-153.8 573.66,-153.8 570.66,-149.8 514.34,-149.8 514.34,-113.8 597.66,-113.8 597.66,-149.8"/>
<text text-anchor="middle" x="556" y="-127.6" font-family="Times,serif" font-size="14.00">AppModule</text>
</g>
<!-- AppComponent&#45;&gt;AppModule -->
<g id="edge1" class="edge">
<title>AppComponent&#45;&gt;AppModule</title>
<path fill="none" stroke="black" d="M825,-84.91C825,-104.14 825,-131.8 825,-131.8 825,-131.8 607.74,-131.8 607.74,-131.8"/>
<polygon fill="black" stroke="black" points="607.74,-128.3 597.74,-131.8 607.74,-135.3 607.74,-128.3"/>
</g>
<!-- ChildComponent -->
<g id="node2" class="node">
<title>ChildComponent</title>
<polygon fill="#ffffb3" stroke="black" points="754.45,-84.8 641.55,-84.8 641.55,-48.8 754.45,-48.8 754.45,-84.8"/>
<text text-anchor="middle" x="698" y="-62.6" font-family="Times,serif" font-size="14.00">ChildComponent</text>
</g>
<!-- ChildComponent&#45;&gt;AppModule -->
<g id="edge2" class="edge">
<title>ChildComponent&#45;&gt;AppModule</title>
<path fill="none" stroke="black" d="M698,-84.83C698,-101.2 698,-122.8 698,-122.8 698,-122.8 607.84,-122.8 607.84,-122.8"/>
<polygon fill="black" stroke="black" points="607.84,-119.3 597.84,-122.8 607.84,-126.3 607.84,-119.3"/>
</g>
<!-- ContainerComponent -->
<g id="node3" class="node">
<title>ContainerComponent</title>
<polygon fill="#ffffb3" stroke="black" points="624.04,-84.8 487.96,-84.8 487.96,-48.8 624.04,-48.8 624.04,-84.8"/>
<text text-anchor="middle" x="556" y="-62.6" font-family="Times,serif" font-size="14.00">ContainerComponent</text>
</g>
<!-- ContainerComponent&#45;&gt;AppModule -->
<g id="edge3" class="edge">
<title>ContainerComponent&#45;&gt;AppModule</title>
<path fill="none" stroke="black" d="M556,-84.91C556,-84.91 556,-103.79 556,-103.79"/>
<polygon fill="black" stroke="black" points="552.5,-103.79 556,-113.79 559.5,-103.79 552.5,-103.79"/>
</g>
<!-- ParentComponent -->
<g id="node4" class="node">
<title>ParentComponent</title>
<polygon fill="#ffffb3" stroke="black" points="469.6,-84.8 352.4,-84.8 352.4,-48.8 469.6,-48.8 469.6,-84.8"/>
<text text-anchor="middle" x="411" y="-62.6" font-family="Times,serif" font-size="14.00">ParentComponent</text>
</g>
<!-- ParentComponent&#45;&gt;AppModule -->
<g id="edge4" class="edge">
<title>ParentComponent&#45;&gt;AppModule</title>
<path fill="none" stroke="black" d="M411,-84.83C411,-101.2 411,-122.8 411,-122.8 411,-122.8 504.06,-122.8 504.06,-122.8"/>
<polygon fill="black" stroke="black" points="504.06,-126.3 514.06,-122.8 504.06,-119.3 504.06,-126.3"/>
</g>
<!-- SiblingOneComponent -->
<g id="node5" class="node">
<title>SiblingOneComponent</title>
<polygon fill="#ffffb3" stroke="black" points="334.61,-84.8 189.39,-84.8 189.39,-48.8 334.61,-48.8 334.61,-84.8"/>
<text text-anchor="middle" x="262" y="-62.6" font-family="Times,serif" font-size="14.00">SiblingOneComponent</text>
</g>
<!-- SiblingOneComponent&#45;&gt;AppModule -->
<g id="edge5" class="edge">
<title>SiblingOneComponent&#45;&gt;AppModule</title>
<path fill="none" stroke="black" d="M262,-84.91C262,-104.14 262,-131.8 262,-131.8 262,-131.8 504.19,-131.8 504.19,-131.8"/>
<polygon fill="black" stroke="black" points="504.19,-135.3 514.19,-131.8 504.19,-128.3 504.19,-135.3"/>
</g>
<!-- SiblingTwoComponent -->
<g id="node6" class="node">
<title>SiblingTwoComponent</title>
<polygon fill="#ffffb3" stroke="black" points="171.95,-84.8 24.05,-84.8 24.05,-48.8 171.95,-48.8 171.95,-84.8"/>
<text text-anchor="middle" x="98" y="-62.6" font-family="Times,serif" font-size="14.00">SiblingTwoComponent</text>
</g>
<!-- SiblingTwoComponent&#45;&gt;AppModule -->
<g id="edge6" class="edge">
<title>SiblingTwoComponent&#45;&gt;AppModule</title>
<path fill="none" stroke="black" d="M98,-85.09C98,-107.01 98,-140.8 98,-140.8 98,-140.8 504.14,-140.8 504.14,-140.8"/>
<polygon fill="black" stroke="black" points="504.14,-144.3 514.14,-140.8 504.14,-137.3 504.14,-144.3"/>
</g>
<!-- AppComponent  -->
<g id="node9" class="node">
<title>AppComponent </title>
<polygon fill="#80b1d3" stroke="black" points="610.44,-214.8 501.56,-214.8 501.56,-178.8 610.44,-178.8 610.44,-214.8"/>
<text text-anchor="middle" x="556" y="-192.6" font-family="Times,serif" font-size="14.00">AppComponent </text>
</g>
<!-- AppModule&#45;&gt;AppComponent  -->
<g id="edge8" class="edge">
<title>AppModule&#45;&gt;AppComponent </title>
<path fill="none" stroke="black" stroke-dasharray="1,5" d="M556,-149.91C556,-149.91 556,-168.79 556,-168.79"/>
<polygon fill="black" stroke="black" points="552.5,-168.79 556,-178.79 559.5,-168.79 552.5,-168.79"/>
</g>
<!-- AppRoutingModule -->
<g id="node8" class="node">
<title>AppRoutingModule</title>
<polygon fill="#8dd3c7" stroke="black" points="1030.28,-84.8 1027.28,-88.8 1006.28,-88.8 1003.28,-84.8 901.72,-84.8 901.72,-48.8 1030.28,-48.8 1030.28,-84.8"/>
<text text-anchor="middle" x="966" y="-62.6" font-family="Times,serif" font-size="14.00">AppRoutingModule</text>
</g>
<!-- AppRoutingModule&#45;&gt;AppModule -->
<g id="edge7" class="edge">
<title>AppRoutingModule&#45;&gt;AppModule</title>
<path fill="none" stroke="black" d="M966,-85.09C966,-107.01 966,-140.8 966,-140.8 966,-140.8 607.95,-140.8 607.95,-140.8"/>
<polygon fill="black" stroke="black" points="607.95,-137.3 597.95,-140.8 607.95,-144.3 607.95,-137.3"/>
</g>
</g>
</svg>
