<?xml version="1.0" encoding="UTF-8" standalone="no"?>
<!DOCTYPE svg PUBLIC "-//W3C//DTD SVG 1.1//EN"
 "http://www.w3.org/Graphics/SVG/1.1/DTD/svg11.dtd">
<!-- Generated by graphviz version 5.0.0 (20220707.1540)
 -->
<!-- Title: dependencies Pages: 1 -->
<svg width="1062pt" height="247pt"
 viewBox="0.00 0.00 1062.00 246.80" xmlns="http://www.w3.org/2000/svg" xmlns:xlink="http://www.w3.org/1999/xlink">
<g id="graph0" class="graph" transform="scale(1 1) rotate(0) translate(4 242.8)">
<title>dependencies</title>
<polygon fill="white" stroke="transparent" points="-4,4 -4,-242.8 1058,-242.8 1058,4 -4,4"/>
<text text-anchor="middle" x="527" y="-8.2" font-family="sans-serif" font-size="14.00">dependencies</text>
<g id="clust1" class="cluster">
<title>cluster_AppModule</title>
<polygon fill="none" stroke="black" stroke-dasharray="1,5" points="8,-32.8 8,-230.8 1046,-230.8 1046,-32.8 8,-32.8"/>
</g>
<g id="clust2" class="cluster">
<title>cluster_AppModule_declarations</title>
<polygon fill="none" stroke="black" points="168,-40.8 168,-92.8 1038,-92.8 1038,-40.8 168,-40.8"/>
</g>
<g id="clust9" class="cluster">
<title>cluster_AppModule_imports</title>
<polygon fill="none" stroke="black" points="16,-40.8 16,-92.8 160,-92.8 160,-40.8 16,-40.8"/>
</g>
<g id="clust11" class="cluster">
<title>cluster_AppModule_bootstrap</title>
<polygon fill="none" stroke="black" points="501,-170.8 501,-222.8 625,-222.8 625,-170.8 501,-170.8"/>
</g>
<!-- AppComponent -->
<g id="node1" class="node">
<title>AppComponent</title>
<polygon fill="#ffffb3" stroke="black" points="1029.94,-84.8 924.06,-84.8 924.06,-48.8 1029.94,-48.8 1029.94,-84.8"/>
<text text-anchor="middle" x="977" y="-62.6" font-family="Times,serif" font-size="14.00">AppComponent</text>
</g>
<!-- AppModule -->
<g id="node7" class="node">
<title>AppModule</title>
<polygon fill="#8dd3c7" stroke="black" points="604.66,-149.8 601.66,-153.8 580.66,-153.8 577.66,-149.8 521.34,-149.8 521.34,-113.8 604.66,-113.8 604.66,-149.8"/>
<text text-anchor="middle" x="563" y="-127.6" font-family="Times,serif" font-size="14.00">AppModule</text>
</g>
<!-- AppComponent&#45;&gt;AppModule -->
<g id="edge1" class="edge">
<title>AppComponent&#45;&gt;AppModule</title>
<path fill="none" stroke="black" d="M977,-85.09C977,-107.01 977,-140.8 977,-140.8 977,-140.8 614.97,-140.8 614.97,-140.8"/>
<polygon fill="black" stroke="black" points="614.97,-137.3 604.97,-140.8 614.97,-144.3 614.97,-137.3"/>
</g>
<!-- ChildComponent -->
<g id="node2" class="node">
<title>ChildComponent</title>
<polygon fill="#ffffb3" stroke="black" points="906.45,-84.8 793.55,-84.8 793.55,-48.8 906.45,-48.8 906.45,-84.8"/>
<text text-anchor="middle" x="850" y="-62.6" font-family="Times,serif" font-size="14.00">ChildComponent</text>
</g>
<!-- ChildComponent&#45;&gt;AppModule -->
<g id="edge2" class="edge">
<title>ChildComponent&#45;&gt;AppModule</title>
<path fill="none" stroke="black" d="M850,-84.91C850,-104.14 850,-131.8 850,-131.8 850,-131.8 614.73,-131.8 614.73,-131.8"/>
<polygon fill="black" stroke="black" points="614.73,-128.3 604.73,-131.8 614.73,-135.3 614.73,-128.3"/>
</g>
<!-- ContainerComponent -->
<g id="node3" class="node">
<title>ContainerComponent</title>
<polygon fill="#ffffb3" stroke="black" points="776.04,-84.8 639.96,-84.8 639.96,-48.8 776.04,-48.8 776.04,-84.8"/>
<text text-anchor="middle" x="708" y="-62.6" font-family="Times,serif" font-size="14.00">ContainerComponent</text>
</g>
<!-- ContainerComponent&#45;&gt;AppModule -->
<g id="edge3" class="edge">
<title>ContainerComponent&#45;&gt;AppModule</title>
<path fill="none" stroke="black" d="M708,-84.83C708,-101.2 708,-122.8 708,-122.8 708,-122.8 614.94,-122.8 614.94,-122.8"/>
<polygon fill="black" stroke="black" points="614.94,-119.3 604.94,-122.8 614.94,-126.3 614.94,-119.3"/>
</g>
<!-- ParentComponent -->
<g id="node4" class="node">
<title>ParentComponent</title>
<polygon fill="#ffffb3" stroke="black" points="621.6,-84.8 504.4,-84.8 504.4,-48.8 621.6,-48.8 621.6,-84.8"/>
<text text-anchor="middle" x="563" y="-62.6" font-family="Times,serif" font-size="14.00">ParentComponent</text>
</g>
<!-- ParentComponent&#45;&gt;AppModule -->
<g id="edge4" class="edge">
<title>ParentComponent&#45;&gt;AppModule</title>
<path fill="none" stroke="black" d="M563,-84.91C563,-84.91 563,-103.79 563,-103.79"/>
<polygon fill="black" stroke="black" points="559.5,-103.79 563,-113.79 566.5,-103.79 559.5,-103.79"/>
</g>
<!-- SiblingOneComponent -->
<g id="node5" class="node">
<title>SiblingOneComponent</title>
<polygon fill="#ffffb3" stroke="black" points="486.61,-84.8 341.39,-84.8 341.39,-48.8 486.61,-48.8 486.61,-84.8"/>
<text text-anchor="middle" x="414" y="-62.6" font-family="Times,serif" font-size="14.00">SiblingOneComponent</text>
</g>
<!-- SiblingOneComponent&#45;&gt;AppModule -->
<g id="edge5" class="edge">
<title>SiblingOneComponent&#45;&gt;AppModule</title>
<path fill="none" stroke="black" d="M414,-84.83C414,-101.2 414,-122.8 414,-122.8 414,-122.8 511.1,-122.8 511.1,-122.8"/>
<polygon fill="black" stroke="black" points="511.1,-126.3 521.1,-122.8 511.1,-119.3 511.1,-126.3"/>
</g>
<!-- SiblingTwoComponent -->
<g id="node6" class="node">
<title>SiblingTwoComponent</title>
<polygon fill="#ffffb3" stroke="black" points="323.95,-84.8 176.05,-84.8 176.05,-48.8 323.95,-48.8 323.95,-84.8"/>
<text text-anchor="middle" x="250" y="-62.6" font-family="Times,serif" font-size="14.00">SiblingTwoComponent</text>
</g>
<!-- SiblingTwoComponent&#45;&gt;AppModule -->
<g id="edge6" class="edge">
<title>SiblingTwoComponent&#45;&gt;AppModule</title>
<path fill="none" stroke="black" d="M250,-84.91C250,-104.14 250,-131.8 250,-131.8 250,-131.8 511.11,-131.8 511.11,-131.8"/>
<polygon fill="black" stroke="black" points="511.11,-135.3 521.11,-131.8 511.11,-128.3 511.11,-135.3"/>
</g>
<!-- AppComponent  -->
<g id="node9" class="node">
<title>AppComponent </title>
<polygon fill="#80b1d3" stroke="black" points="617.44,-214.8 508.56,-214.8 508.56,-178.8 617.44,-178.8 617.44,-214.8"/>
<text text-anchor="middle" x="563" y="-192.6" font-family="Times,serif" font-size="14.00">AppComponent </text>
</g>
<!-- AppModule&#45;&gt;AppComponent  -->
<g id="edge8" class="edge">
<title>AppModule&#45;&gt;AppComponent </title>
<path fill="none" stroke="black" stroke-dasharray="1,5" d="M563,-149.91C563,-149.91 563,-168.79 563,-168.79"/>
<polygon fill="black" stroke="black" points="559.5,-168.79 563,-178.79 566.5,-168.79 559.5,-168.79"/>
</g>
<!-- AppRoutingModule -->
<g id="node8" class="node">
<title>AppRoutingModule</title>
<polygon fill="#8dd3c7" stroke="black" points="152.28,-84.8 149.28,-88.8 128.28,-88.8 125.28,-84.8 23.72,-84.8 23.72,-48.8 152.28,-48.8 152.28,-84.8"/>
<text text-anchor="middle" x="88" y="-62.6" font-family="Times,serif" font-size="14.00">AppRoutingModule</text>
</g>
<!-- AppRoutingModule&#45;&gt;AppModule -->
<g id="edge7" class="edge">
<title>AppRoutingModule&#45;&gt;AppModule</title>
<path fill="none" stroke="black" d="M88,-85.09C88,-107.01 88,-140.8 88,-140.8 88,-140.8 511.26,-140.8 511.26,-140.8"/>
<polygon fill="black" stroke="black" points="511.26,-144.3 521.26,-140.8 511.26,-137.3 511.26,-144.3"/>
</g>
</g>
</svg>
